<?xml version="1.0" encoding="UTF-8"?>
<svg width="406px" height="37px" viewBox="0 0 406 37" version="1.1" xmlns="http://www.w3.org/2000/svg" xmlns:xlink="http://www.w3.org/1999/xlink">
    <!-- Generator: Sketch 46.2 (44496) - http://www.bohemiancoding.com/sketch -->
    <title>Artboard Copy</title>
    <desc>Created with Sketch.</desc>
    <defs></defs>
    <g id="Page-1" stroke="none" stroke-width="1" fill="none" fill-rule="evenodd">
        <g id="Artboard-Copy">
            <rect id="Rectangle-2" fill="#D97D96" x="4" y="7" width="78" height="23"></rect>
            <rect id="Rectangle-2-Copy" fill="#777777" x="82" y="7" width="78" height="23"></rect>
            <rect id="Rectangle-2-Copy-2" fill="#777777" x="160" y="7" width="78" height="23"></rect>
            <rect id="Rectangle-2-Copy-3" fill="#777777" x="238" y="7" width="78" height="23"></rect>
            <rect id="Rectangle-2-Copy-4" fill="#A7A4A4" x="316" y="7" width="78" height="23"></rect>
            <path d="M21.15489,20.058104 C21.15489,19.7115171 21.028546,19.4454647 20.775854,19.2599388 C20.523162,19.0744129 20.0683234,18.8786962 19.4113243,18.6727829 C18.7543252,18.4668695 18.2342087,18.2640173 17.8509593,18.0642202 C16.8064992,17.5178362 16.284277,16.7818599 16.284277,15.8562691 C16.284277,15.375125 16.4243084,14.9459754 16.7043753,14.5688073 C16.9844422,14.1916393 17.3866375,13.8970449 17.9109733,13.6850153 C18.4353091,13.4729857 19.023862,13.3669725 19.6766495,13.3669725 C20.3336486,13.3669725 20.9190428,13.4821599 21.4328498,13.7125382 C21.9466568,13.9429165 22.3456935,14.2680917 22.6299719,14.6880734 C22.9142504,15.1080551 23.0563875,15.5851146 23.0563875,16.1192661 L21.1612073,16.1192661 C21.1612073,15.7115168 21.028546,15.3944965 20.7632195,15.1681957 C20.4978929,14.9418949 20.1251779,14.8287462 19.6450632,14.8287462 C19.1817946,14.8287462 18.821714,14.9235465 18.5648105,15.1131498 C18.307907,15.3027532 18.1794572,15.5524959 18.1794572,15.8623853 C18.1794572,16.1518873 18.3300172,16.3944944 18.6311418,16.5902141 C18.9322664,16.7859337 19.3755235,16.9694181 19.9609265,17.1406728 C21.0390789,17.4546397 21.8245179,17.8440344 22.3172672,18.3088685 C22.8100165,18.7737026 23.0563875,19.3526979 23.0563875,20.0458716 C23.0563875,20.8165176 22.7552674,21.4209968 22.1530182,21.8593272 C21.5507691,22.2976576 20.7400612,22.5168196 19.7208704,22.5168196 C19.0133329,22.5168196 18.3689781,22.3914386 17.7877866,22.1406728 C17.2065951,21.889907 16.763338,21.5463834 16.4580019,21.1100917 C16.1526658,20.6738001 16,20.1681986 16,19.5932722 L17.9014974,19.5932722 C17.9014974,20.5759478 18.507949,21.0672783 19.7208704,21.0672783 C20.1715044,21.0672783 20.523162,20.9785942 20.775854,20.8012232 C21.028546,20.6238523 21.15489,20.3761484 21.15489,20.058104 Z M26.000234,16.4984709 C26.4845602,15.935777 27.0931175,15.6544343 27.8259242,15.6544343 C29.3083836,15.6544343 30.0601309,16.4882689 30.0811886,18.1559633 L30.0811886,22.3944954 L28.2554984,22.3944954 L28.2554984,18.204893 C28.2554984,17.8256862 28.171269,17.5453628 28.0028077,17.3639144 C27.8343464,17.182466 27.5542837,17.0917431 27.1626111,17.0917431 C26.6277465,17.0917431 26.2402913,17.2915372 26.000234,17.6911315 L26.000234,22.3944954 L24.1745438,22.3944954 L24.1745438,13 L26.000234,13 L26.000234,16.4984709 Z M31.1740758,19.0244648 C31.1740758,18.3679886 31.3046314,17.7828772 31.5657464,17.2691131 C31.8268614,16.7553491 32.202735,16.3577996 32.6933786,16.0764526 C33.1840221,15.7951056 33.7536233,15.6544343 34.4021993,15.6544343 C35.324525,15.6544343 36.0773251,15.9276221 36.6606224,16.4740061 C37.2439196,17.0203901 37.5692556,17.7624826 37.6366401,18.7003058 L37.6492747,19.1529052 C37.6492747,20.1682008 37.3565776,20.9826677 36.7711745,21.5963303 C36.1857715,22.2099929 35.4003325,22.5168196 34.4148339,22.5168196 C33.4293353,22.5168196 32.6428434,22.2110122 32.0553346,21.5993884 C31.4678258,20.9877645 31.1740758,20.1559686 31.1740758,19.1039755 L31.1740758,19.0244648 Z M32.999766,19.1529052 C32.999766,19.780839 33.1218986,20.2609565 33.3661675,20.5932722 C33.6104364,20.9255878 33.9599884,21.0917431 34.4148339,21.0917431 C34.8570448,21.0917431 35.2023853,20.9276265 35.4508657,20.5993884 C35.6993461,20.2711502 35.8235845,19.746181 35.8235845,19.0244648 C35.8235845,18.4087635 35.6993461,17.931704 35.4508657,17.5932722 C35.2023853,17.2548403 34.8528333,17.0856269 34.4021993,17.0856269 C33.9557769,17.0856269 33.6104364,17.2538209 33.3661675,17.5902141 C33.1218986,17.9266072 32.999766,18.447499 32.999766,19.1529052 Z M44.9267665,19.146789 C44.9267665,20.1661621 44.6877656,20.9826677 44.2097567,21.5963303 C43.7317477,22.2099929 43.08634,22.5168196 42.2735143,22.5168196 C41.5828229,22.5168196 41.0248032,22.284406 40.5994385,21.8195719 L40.5994385,24.9388379 L38.7737482,24.9388379 L38.7737482,15.7767584 L40.4667759,15.7767584 L40.5299485,16.4250765 C40.9721594,15.9113124 41.5491307,15.6544343 42.2608797,15.6544343 C43.1031862,15.6544343 43.7580697,15.9561642 44.2255498,16.559633 C44.6930299,17.1631019 44.9267665,17.9948979 44.9267665,19.0550459 L44.9267665,19.146789 Z M43.1010763,19.0183486 C43.1010763,18.4026473 42.9884195,17.9276265 42.7631025,17.5932722 C42.5377855,17.2589178 42.2103437,17.0917431 41.7807674,17.0917431 C41.207999,17.0917431 40.8142266,17.3037695 40.5994385,17.7278287 L40.5994385,20.4373089 C40.8226497,20.8736006 41.2206335,21.0917431 41.793402,21.0917431 C42.6651892,21.0917431 43.1010763,20.4006185 43.1010763,19.0183486 Z M52.2105756,19.146789 C52.2105756,20.1661621 51.9715747,20.9826677 51.4935657,21.5963303 C51.0155568,22.2099929 50.3701491,22.5168196 49.5573234,22.5168196 C48.866632,22.5168196 48.3086123,22.284406 47.8832475,21.8195719 L47.8832475,24.9388379 L46.0575573,24.9388379 L46.0575573,15.7767584 L47.7505849,15.7767584 L47.8137576,16.4250765 C48.2559685,15.9113124 48.8329398,15.6544343 49.5446888,15.6544343 C50.3869953,15.6544343 51.0418788,15.9561642 51.5093589,16.559633 C51.976839,17.1631019 52.2105756,17.9948979 52.2105756,19.0550459 L52.2105756,19.146789 Z M50.3848854,19.0183486 C50.3848854,18.4026473 50.2722285,17.9276265 50.0469116,17.5932722 C49.8215946,17.2589178 49.4941528,17.0917431 49.0645765,17.0917431 C48.4918081,17.0917431 48.0980357,17.3037695 47.8832475,17.7278287 L47.8832475,20.4373089 C48.1064588,20.8736006 48.5044426,21.0917431 49.077211,21.0917431 C49.9489983,21.0917431 50.3848854,20.4006185 50.3848854,19.0183486 Z M55.2681329,22.3944954 L53.4361254,22.3944954 L53.4361254,15.7767584 L55.2681329,15.7767584 L55.2681329,22.3944954 Z M53.3287319,14.0642202 C53.3287319,13.7991832 53.4203313,13.5810406 53.603533,13.4097859 C53.7867347,13.2385313 54.0362642,13.1529052 54.3521292,13.1529052 C54.6637826,13.1529052 54.9122593,13.2385313 55.0975667,13.4097859 C55.2828741,13.5810406 55.3755264,13.7991832 55.3755264,14.0642202 C55.3755264,14.3333347 55.2818212,14.553516 55.094408,14.7247706 C54.9069949,14.8960253 54.659571,14.9816514 54.3521292,14.9816514 C54.0446873,14.9816514 53.7972635,14.8960253 53.6098503,14.7247706 C53.4224371,14.553516 53.3287319,14.3333347 53.3287319,14.0642202 Z M58.4520356,15.7767584 L58.508891,16.5412844 C58.9974287,15.950048 59.6523122,15.6544343 60.4735611,15.6544343 C61.1979447,15.6544343 61.7370127,15.8603445 62.0907815,16.2721713 C62.4445502,16.683998 62.6256434,17.2996901 62.6340664,18.1192661 L62.6340664,22.3944954 L60.8083762,22.3944954 L60.8083762,18.1620795 C60.8083762,17.7869502 60.7241468,17.5147817 60.5556855,17.3455657 C60.3872242,17.1763498 60.1071615,17.0917431 59.715489,17.0917431 C59.201682,17.0917431 58.8163326,17.3037695 58.5594291,17.7278287 L58.5594291,22.3944954 L56.7337389,22.3944954 L56.7337389,15.7767584 L58.4520356,15.7767584 Z M63.7522227,19.0366972 C63.7522227,18.0214017 64.0017523,17.2038767 64.5008189,16.5840979 C64.9998855,15.964319 65.6726677,15.6544343 66.5191858,15.6544343 C67.2688386,15.6544343 67.8521271,15.9031576 68.2690688,16.4006116 L68.344876,15.7767584 L70,15.7767584 L70,22.1743119 C70,22.7533158 69.8641801,23.2568786 69.5925363,23.6850153 C69.3208924,24.113152 68.9387016,24.4393465 68.4459523,24.6636086 C67.953203,24.8878706 67.3762317,25 66.7150211,25 C66.2138487,25 65.7253182,24.903161 65.2494151,24.7094801 C64.7735119,24.5157992 64.4134313,24.2660566 64.1691624,23.9602446 L64.9777726,22.883792 C65.4326181,23.3771686 65.9843206,23.6238532 66.6328966,23.6238532 C67.1172228,23.6238532 67.4941493,23.4984722 67.7636874,23.2477064 C68.0332255,22.9969406 68.1679925,22.6411848 68.1679925,22.1804281 L68.1679925,21.8256881 C67.7468393,22.2864447 67.193031,22.5168196 66.5065512,22.5168196 C65.6853024,22.5168196 65.0209431,22.2059154 64.5134534,21.5840979 C64.0059638,20.9622803 63.7522227,20.1376198 63.7522227,19.1100917 L63.7522227,19.0366972 Z M65.577913,19.1651376 C65.577913,19.764529 65.7021513,20.2344529 65.9506317,20.5749235 C66.1991121,20.9153942 66.5402412,21.0856269 66.974029,21.0856269 C67.5299513,21.0856269 67.9279352,20.8837941 68.1679925,20.4801223 L68.1679925,17.6972477 C67.9237236,17.293576 67.5299512,17.0917431 66.9866635,17.0917431 C66.5486642,17.0917431 66.2043765,17.2650339 65.9537904,17.6116208 C65.7032042,17.9582076 65.577913,18.4760414 65.577913,19.1651376 Z" id="Shopping" fill="#FFFFFF"></path>
            <path d="M107.510222,19.0475578 L103.887062,19.0475578 L103.887062,22.8714653 L102,22.8714653 L102,13.5141388 L107.963117,13.5141388 L107.963117,15.0758355 L103.887062,15.0758355 L103.887062,17.4922879 L107.510222,17.4922879 L107.510222,19.0475578 Z M112.668192,22.8714653 C112.584322,22.7043693 112.523517,22.4965737 112.485776,22.248072 C112.045459,22.7493598 111.473056,23 110.768549,23 C110.101784,23 109.549299,22.8029154 109.111079,22.4087404 C108.672859,22.0145653 108.453753,21.5175694 108.453753,20.9177378 C108.453753,20.1808018 108.721084,19.6152548 109.255754,19.2210797 C109.790424,18.8269046 110.563064,18.6276778 111.573695,18.6233933 L112.410293,18.6233933 L112.410293,18.2249357 C112.410293,17.9035974 112.32957,17.6465305 112.16812,17.4537275 C112.006671,17.2609245 111.75192,17.1645244 111.40386,17.1645244 C111.097735,17.1645244 110.857661,17.2395022 110.683631,17.3894602 C110.509601,17.5394181 110.422588,17.7450715 110.422588,18.0064267 L108.604718,18.0064267 C108.604718,17.6036826 108.726327,17.2309357 108.96955,16.8881748 C109.212772,16.5454139 109.556633,16.2765648 110.001144,16.0816195 C110.445654,15.8866743 110.944672,15.7892031 111.498213,15.7892031 C112.336912,15.7892031 113.002618,16.0044966 113.495354,16.43509 C113.988089,16.8656834 114.234453,17.4708616 114.234453,18.2506427 L114.234453,21.2647815 C114.238647,21.9245963 114.328805,22.4237344 114.504932,22.7622108 L114.504932,22.8714653 L112.668192,22.8714653 Z M111.164832,21.5796915 C111.433216,21.5796915 111.680628,21.5186381 111.907076,21.3965296 C112.133525,21.274421 112.301262,21.1105409 112.410293,20.9048843 L112.410293,19.7095116 L111.730951,19.7095116 C110.820963,19.7095116 110.336622,20.0308451 110.277913,20.6735219 L110.271623,20.7827763 C110.271623,21.01414 110.351298,21.2047979 110.51065,21.3547558 C110.670003,21.5047137 110.888062,21.5796915 111.164832,21.5796915 Z M119.316941,20.9498715 C119.316941,20.7227924 119.206863,20.5439167 118.986705,20.4132391 C118.766546,20.2825615 118.41325,20.1658103 117.926805,20.062982 C116.308117,19.7159366 115.498785,19.0132872 115.498785,17.9550129 C115.498785,17.3380432 115.749342,16.8228384 116.250465,16.409383 C116.751587,15.9959277 117.40681,15.7892031 118.216154,15.7892031 C119.080014,15.7892031 119.770881,15.9969988 120.288778,16.4125964 C120.806674,16.828194 121.065618,17.3680344 121.065618,18.0321337 L119.247748,18.0321337 C119.247748,17.766494 119.16388,17.546916 118.99614,17.3733933 C118.8284,17.1998706 118.566311,17.1131105 118.209864,17.1131105 C117.903739,17.1131105 117.66681,17.1838039 117.499071,17.3251928 C117.331331,17.4665817 117.247462,17.6465285 117.247462,17.8650386 C117.247462,18.0706951 117.342863,18.2367174 117.533667,18.3631105 C117.724471,18.4895036 118.046317,18.598757 118.499214,18.690874 C118.952111,18.782991 119.333713,18.8868889 119.644031,19.0025707 C120.604341,19.3624697 121.084489,19.9858567 121.084489,20.8727506 C121.084489,21.5068584 120.818206,22.0199209 120.285633,22.4119537 C119.753059,22.8039865 119.065337,23 118.222445,23 C117.65213,23 117.145773,22.8961022 116.70336,22.6883033 C116.260946,22.4805045 115.91394,22.1955888 115.66233,21.8335476 C115.410721,21.4715063 115.284918,21.0805505 115.284918,20.6606684 L117.008435,20.6606684 C117.025209,20.9905758 117.144721,21.2433582 117.366976,21.4190231 C117.589232,21.5946881 117.886965,21.6825193 118.260186,21.6825193 C118.608246,21.6825193 118.871383,21.6150392 119.049607,21.4800771 C119.22783,21.345115 119.316941,21.1683816 119.316941,20.9498715 Z M124.028306,16.6760925 C124.510558,16.0848299 125.116508,15.7892031 125.846176,15.7892031 C127.322285,15.7892031 128.070812,16.6653726 128.09178,18.4177378 L128.09178,22.8714653 L126.27391,22.8714653 L126.27391,18.4691517 C126.27391,18.0706921 126.190041,17.7761363 126.022302,17.5854756 C125.854562,17.3948148 125.575699,17.2994859 125.185704,17.2994859 C124.653131,17.2994859 124.267335,17.5094238 124.028306,17.9293059 L124.028306,22.8714653 L122.210436,22.8714653 L122.210436,13 L124.028306,13 L124.028306,16.6760925 Z M131.381558,22.8714653 L129.557398,22.8714653 L129.557398,15.9177378 L131.381558,15.9177378 L131.381558,22.8714653 Z M129.450465,14.1182519 C129.450465,13.8397587 129.541672,13.6105407 129.724089,13.4305913 C129.906506,13.2506418 130.154966,13.1606684 130.469478,13.1606684 C130.779797,13.1606684 131.027209,13.2506418 131.211723,13.4305913 C131.396236,13.6105407 131.488492,13.8397587 131.488492,14.1182519 C131.488492,14.4010297 131.395188,14.6323898 131.208578,14.8123393 C131.021967,14.9922888 130.775603,15.0822622 130.469478,15.0822622 C130.163353,15.0822622 129.916989,14.9922888 129.730379,14.8123393 C129.543768,14.6323898 129.450465,14.4010297 129.450465,14.1182519 Z M132.595568,19.3303342 C132.595568,18.6405278 132.725565,18.0257096 132.985561,17.4858612 C133.245558,16.9460127 133.619821,16.5282791 134.108363,16.2326478 C134.596905,15.9370165 135.164066,15.7892031 135.809864,15.7892031 C136.728239,15.7892031 137.477815,16.0762611 138.058613,16.6503856 C138.639412,17.2245102 138.963354,18.0042796 139.03045,18.9897172 L139.043031,19.4652956 C139.043031,20.532139 138.751587,21.3879574 138.168692,22.0327763 C137.585796,22.6775953 136.803722,23 135.822445,23 C134.841167,23 134.058044,22.6786665 133.473052,22.0359897 C132.88806,21.393313 132.595568,20.5192857 132.595568,19.4138817 L132.595568,19.3303342 Z M134.413438,19.4652956 C134.413438,20.1251104 134.535048,20.6296041 134.77827,20.9787918 C135.021493,21.3279795 135.369547,21.5025707 135.822445,21.5025707 C136.262761,21.5025707 136.606623,21.3301217 136.854039,20.9852185 C137.101455,20.6403153 137.225161,20.0886927 137.225161,19.3303342 C137.225161,18.6833729 137.101455,18.1820926 136.854039,17.8264781 C136.606623,17.4708637 136.258568,17.2930591 135.809864,17.2930591 C135.365354,17.2930591 135.021493,17.4697926 134.77827,17.8232648 C134.535048,18.176737 134.413438,18.7240751 134.413438,19.4652956 Z M141.835883,15.9177378 L141.892495,16.7210797 C142.37894,16.0998255 143.031018,15.7892031 143.848749,15.7892031 C144.57003,15.7892031 145.106789,16.0055677 145.459042,16.4383033 C145.811296,16.871039 145.991613,17.5179906 146,18.3791774 L146,22.8714653 L144.18213,22.8714653 L144.18213,18.4241645 C144.18213,18.0299895 144.098262,17.7440026 143.930522,17.5661954 C143.762782,17.3883881 143.483919,17.2994859 143.093924,17.2994859 C142.582318,17.2994859 142.198619,17.5222771 141.942816,17.9678663 L141.942816,22.8714653 L140.124946,22.8714653 L140.124946,15.9177378 L141.835883,15.9177378 Z" id="Fashion" fill="#FFFFFF"></path>
            <path d="M191.119197,20.4164524 C191.119197,20.052269 190.993728,19.7727088 190.742785,19.5777635 C190.491843,19.3828182 190.040154,19.1771647 189.387704,18.9607969 C188.735254,18.7444291 188.218739,18.5312778 187.838143,18.3213368 C186.800915,17.7472122 186.282309,16.9738695 186.282309,16.0012853 C186.282309,15.495713 186.42137,15.0447749 186.699498,14.6484576 C186.977626,14.2521403 187.377036,13.9425889 187.897742,13.7197943 C188.418447,13.4969997 189.002924,13.3856041 189.651192,13.3856041 C190.303642,13.3856041 190.884983,13.5066397 191.395232,13.7487147 C191.905481,13.9907896 192.301755,14.3324742 192.584065,14.7737789 C192.866375,15.2150836 193.007528,15.7163639 193.007528,16.277635 L191.125471,16.277635 C191.125471,15.8491838 190.993728,15.516068 190.730238,15.2782776 C190.466749,15.0404872 190.096615,14.9215938 189.619824,14.9215938 C189.159763,14.9215938 188.802176,15.0212072 188.547051,15.220437 C188.291927,15.4196668 188.164366,15.6820892 188.164366,16.0077121 C188.164366,16.3119124 188.313884,16.566837 188.612923,16.7724936 C188.911963,16.9781501 189.352151,17.1709503 189.933501,17.3508997 C191.004188,17.6808071 191.784188,18.0899719 192.273526,18.5784062 C192.762863,19.0668405 193.007528,19.675232 193.007528,20.403599 C193.007528,21.2133717 192.708493,21.848541 192.110414,22.309126 C191.512335,22.769711 190.707241,23 189.695107,23 C188.992468,23 188.352575,22.8682532 187.775408,22.6047558 C187.198241,22.3412583 186.758053,21.9802936 186.454831,21.5218509 C186.151609,21.0634082 186,20.5321367 186,19.9280206 L187.888331,19.9280206 C187.888331,20.9605879 188.490584,21.4768638 189.695107,21.4768638 C190.14262,21.4768638 190.491843,21.383677 190.742785,21.1973008 C190.993728,21.0109245 191.119197,20.7506443 191.119197,20.4164524 Z M195.930991,16.6760925 C196.411964,16.0848299 197.016308,15.7892031 197.74404,15.7892031 C199.216235,15.7892031 199.962777,16.6653726 199.983689,18.4177378 L199.983689,22.8714653 L198.17064,22.8714653 L198.17064,18.4691517 C198.17064,18.0706921 198.086994,17.7761363 197.919699,17.5854756 C197.752404,17.3948148 197.47428,17.2994859 197.08532,17.2994859 C196.554159,17.2994859 196.169386,17.5094238 195.930991,17.9293059 L195.930991,22.8714653 L194.117942,22.8714653 L194.117942,13 L195.930991,13 L195.930991,16.6760925 Z M201.069009,19.3303342 C201.069009,18.6405278 201.19866,18.0257096 201.457967,17.4858612 C201.717274,16.9460127 202.090545,16.5282791 202.577792,16.2326478 C203.065038,15.9370165 203.630695,15.7892031 204.27478,15.7892031 C205.19072,15.7892031 205.938307,16.0762611 206.517566,16.6503856 C207.096824,17.2245102 207.419908,18.0042796 207.486826,18.9897172 L207.499373,19.4652956 C207.499373,20.532139 207.208702,21.3879574 206.627353,22.0327763 C206.046003,22.6775953 205.266002,23 204.287327,23 C203.308653,23 202.527606,22.6786665 201.944166,22.0359897 C201.360725,21.393313 201.069009,20.5192857 201.069009,19.4138817 L201.069009,19.3303342 Z M202.882058,19.4652956 C202.882058,20.1251104 203.003345,20.6296041 203.245922,20.9787918 C203.4885,21.3279795 203.835631,21.5025707 204.287327,21.5025707 C204.726476,21.5025707 205.069426,21.3301217 205.316186,20.9852185 C205.562946,20.6403153 205.686324,20.0886927 205.686324,19.3303342 C205.686324,18.6833729 205.562946,18.1820926 205.316186,17.8264781 C205.069426,17.4708637 204.722294,17.2930591 204.27478,17.2930591 C203.831449,17.2930591 203.4885,17.4697926 203.245922,17.8232648 C203.003345,18.176737 202.882058,18.7240751 202.882058,19.4652956 Z M211.740276,23 C210.744872,23 209.934549,22.6872353 209.309285,22.0616967 C208.68402,21.436158 208.371393,20.602833 208.371393,19.5616967 L208.371393,19.3817481 C208.371393,18.6833727 208.503135,18.0589145 208.766625,17.5083548 C209.030114,16.957795 209.403385,16.5336347 209.886449,16.2358612 C210.369513,15.9380876 210.920532,15.7892031 211.539523,15.7892031 C212.46801,15.7892031 213.198868,16.0891144 213.73212,16.688946 C214.265373,17.2887776 214.531995,18.1392404 214.531995,19.2403599 L214.531995,19.9987147 L210.209536,19.9987147 C210.268089,20.4528729 210.444791,20.8170509 210.739649,21.0912596 C211.034506,21.3654684 211.407777,21.5025707 211.859473,21.5025707 C212.557929,21.5025707 213.10372,21.2433616 213.496863,20.7249357 L214.387704,21.7467866 C214.11585,22.1409617 213.747807,22.4483708 213.283563,22.6690231 C212.81932,22.8896755 212.304896,23 211.740276,23 Z M211.53325,17.2930591 C211.173566,17.2930591 210.88185,17.4173081 210.658093,17.6658098 C210.434336,17.9143114 210.291092,18.2699206 210.228356,18.7326478 L212.750314,18.7326478 L212.750314,18.5848329 C212.741949,18.1735198 212.633209,17.8553996 212.42409,17.6304627 C212.214972,17.4055259 211.918028,17.2930591 211.53325,17.2930591 Z M219.237139,20.9498715 C219.237139,20.7227924 219.127354,20.5439167 218.907779,20.4132391 C218.688205,20.2825615 218.335845,20.1658103 217.85069,20.062982 C216.236295,19.7159366 215.429109,19.0132872 215.429109,17.9550129 C215.429109,17.3380432 215.679002,16.8228384 216.178795,16.409383 C216.678589,15.9959277 217.332075,15.7892031 218.139272,15.7892031 C219.000841,15.7892031 219.689876,15.9969988 220.206399,16.4125964 C220.722922,16.828194 220.981179,17.3680344 220.981179,18.0321337 L219.16813,18.0321337 C219.16813,17.766494 219.084484,17.546916 218.917189,17.3733933 C218.749895,17.1998706 218.4885,17.1131105 218.132999,17.1131105 C217.827686,17.1131105 217.591385,17.1838039 217.42409,17.3251928 C217.256795,17.4665817 217.173149,17.6465285 217.173149,17.8650386 C217.173149,18.0706951 217.268297,18.2367174 217.458595,18.3631105 C217.648893,18.4895036 217.969885,18.598757 218.421581,18.690874 C218.873277,18.782991 219.253867,18.8868889 219.563363,19.0025707 C220.521126,19.3624697 221,19.9858567 221,20.8727506 C221,21.5068584 220.734423,22.0199209 220.203262,22.4119537 C219.672101,22.8039865 218.986202,23 218.145546,23 C217.576743,23 217.07173,22.8961022 216.630489,22.6883033 C216.189249,22.4805045 215.843163,22.1955888 215.592221,21.8335476 C215.341279,21.4715063 215.215809,21.0805505 215.215809,20.6606684 L216.934755,20.6606684 C216.951485,20.9905758 217.070681,21.2433582 217.292346,21.4190231 C217.514012,21.5946881 217.810956,21.6825193 218.183187,21.6825193 C218.530324,21.6825193 218.792764,21.6150392 218.970514,21.4800771 C219.148265,21.345115 219.237139,21.1683816 219.237139,20.9498715 Z" id="Shoes" fill="#FFFFFF"></path>
            <path d="M274.49663,19.0475578 L270.882408,19.0475578 L270.882408,22.8714653 L269,22.8714653 L269,13.5141388 L274.948408,13.5141388 L274.948408,15.0758355 L270.882408,15.0758355 L270.882408,17.4922879 L274.49663,17.4922879 L274.49663,19.0475578 Z M277.834766,22.8714653 L276.015106,22.8714653 L276.015106,13 L277.834766,13 L277.834766,22.8714653 Z M283.262375,22.8714653 C283.178712,22.7043693 283.118057,22.4965737 283.080409,22.248072 C282.641178,22.7493598 282.070187,23 281.367418,23 C280.702297,23 280.151176,22.8029154 279.714037,22.4087404 C279.276898,22.0145653 279.058331,21.5175694 279.058331,20.9177378 C279.058331,20.1808018 279.325003,19.6152548 279.858355,19.2210797 C280.391706,18.8269046 281.16244,18.6276778 282.170579,18.6233933 L283.005113,18.6233933 L283.005113,18.2249357 C283.005113,17.9035974 282.924588,17.6465305 282.763537,17.4537275 C282.602486,17.2609245 282.348363,17.1645244 282.001162,17.1645244 C281.695792,17.1645244 281.45631,17.2395022 281.28271,17.3894602 C281.109109,17.5394181 281.02231,17.7450715 281.02231,18.0064267 L279.208924,18.0064267 C279.208924,17.6036826 279.330234,17.2309357 279.572856,16.8881748 C279.815479,16.5454139 280.158492,16.2765648 280.601906,16.0816195 C281.045319,15.8866743 281.543107,15.7892031 282.095282,15.7892031 C282.931912,15.7892031 283.595977,16.0044966 284.087497,16.43509 C284.579017,16.8656834 284.824773,17.4708616 284.824773,18.2506427 L284.824773,21.2647815 C284.828957,21.9245963 284.918893,22.4237344 285.094585,22.7622108 L285.094585,22.8714653 L283.262375,22.8714653 Z M281.762724,21.5796915 C282.030445,21.5796915 282.277247,21.5186381 282.503137,21.3965296 C282.729027,21.274421 282.896351,21.1105409 283.005113,20.9048843 L283.005113,19.7095116 L282.327446,19.7095116 C281.419703,19.7095116 280.936556,20.0308451 280.877992,20.6735219 L280.871717,20.7827763 C280.871717,21.01414 280.951196,21.2047979 281.110156,21.3547558 C281.269115,21.5047137 281.486636,21.5796915 281.762724,21.5796915 Z M288.388799,14.2082262 L288.388799,15.9177378 L289.549617,15.9177378 L289.549617,17.2802057 L288.388799,17.2802057 L288.388799,20.7506427 C288.388799,21.0077134 288.436904,21.1919446 288.533116,21.3033419 C288.629329,21.4147392 288.813385,21.470437 289.085289,21.470437 C289.28608,21.470437 289.463862,21.4554415 289.618638,21.4254499 L289.618638,22.8329049 C289.26307,22.9443022 288.89705,23 288.520567,23 C287.24889,23 286.600511,22.3423373 286.575413,21.0269923 L286.575413,17.2802057 L285.584011,17.2802057 L285.584011,15.9177378 L286.575413,15.9177378 L286.575413,14.2082262 L288.388799,14.2082262 Z M294.236812,20.9498715 C294.236812,20.7227924 294.127006,20.5439167 293.90739,20.4132391 C293.687775,20.2825615 293.33535,20.1658103 292.850105,20.062982 C291.235409,19.7159366 290.428073,19.0132872 290.428073,17.9550129 C290.428073,17.3380432 290.678013,16.8228384 291.177899,16.409383 C291.677785,15.9959277 292.331393,15.7892031 293.13874,15.7892031 C294.000469,15.7892031 294.689633,15.9969988 295.206251,16.4125964 C295.72287,16.828194 295.981176,17.3680344 295.981176,18.0321337 L294.16779,18.0321337 C294.16779,17.766494 294.084128,17.546916 293.916802,17.3733933 C293.749476,17.1998706 293.488033,17.1131105 293.132466,17.1131105 C292.827096,17.1131105 292.590751,17.1838039 292.423426,17.3251928 C292.2561,17.4665817 292.172438,17.6465285 292.172438,17.8650386 C292.172438,18.0706951 292.267603,18.2367174 292.457936,18.3631105 C292.64827,18.4895036 292.969321,18.598757 293.421102,18.690874 C293.872882,18.782991 294.253542,18.8868889 294.563096,19.0025707 C295.521037,19.3624697 296,19.9858567 296,20.8727506 C296,21.5068584 295.734374,22.0199209 295.203114,22.4119537 C294.671854,22.8039865 293.985828,23 293.145015,23 C292.576107,23 292.070999,22.8961022 291.629677,22.6883033 C291.188355,22.4805045 290.842204,22.1955888 290.591215,21.8335476 C290.340226,21.4715063 290.214734,21.0805505 290.214734,20.6606684 L291.934,20.6606684 C291.950732,20.9905758 292.06995,21.2433582 292.291657,21.4190231 C292.513364,21.5946881 292.810363,21.6825193 293.182663,21.6825193 C293.529865,21.6825193 293.792353,21.6150392 293.970137,21.4800771 C294.147921,21.345115 294.236812,21.1683816 294.236812,20.9498715 Z" id="Flats" fill="#FFFFFF"></path>
            <path d="M340,22.8780488 L340,14 L343.193202,14 C344.29935,14 345.138339,14.2062987 345.710197,14.6189024 C346.282054,15.0315061 346.567979,15.6361749 346.567979,16.4329268 C346.567979,16.8678884 346.453191,17.2510146 346.223614,17.5823171 C345.994036,17.9136195 345.674719,18.1565033 345.265653,18.3109756 C345.733157,18.4247973 346.101519,18.6544698 346.370751,19 C346.639983,19.3455302 346.774597,19.7682902 346.774597,20.2682927 C346.774597,21.1219555 346.494934,21.7682905 345.935599,22.2073171 C345.376264,22.6463437 344.579015,22.8699187 343.543828,22.8780488 L340,22.8780488 Z M341.878354,19.0121951 L341.878354,21.4085366 L343.487478,21.4085366 C343.929937,21.4085366 344.275342,21.3058953 344.523703,21.1006098 C344.772064,20.8953242 344.896243,20.6117904 344.896243,20.25 C344.896243,19.4369878 344.464226,19.0243903 343.600179,19.0121951 L341.878354,19.0121951 Z M341.878354,17.7195122 L343.268336,17.7195122 C344.215866,17.703252 344.689624,17.3353695 344.689624,16.6158537 C344.689624,16.2134126 344.56962,15.9237814 344.329606,15.7469512 C344.089593,15.5701211 343.710796,15.4817073 343.193202,15.4817073 L341.878354,15.4817073 L341.878354,17.7195122 Z M351.871199,17.9329268 C351.624924,17.9004063 351.407872,17.8841463 351.220036,17.8841463 C350.535477,17.8841463 350.086763,18.1097538 349.873882,18.5609756 L349.873882,22.8780488 L348.064401,22.8780488 L348.064401,16.2804878 L349.773703,16.2804878 L349.823792,17.0670732 C350.186943,16.4613791 350.689919,16.1585366 351.332737,16.1585366 C351.533096,16.1585366 351.720929,16.1849591 351.896243,16.2378049 L351.871199,17.9329268 Z M352.234347,19.5182927 C352.234347,18.8638179 352.363743,18.2804904 352.62254,17.7682927 C352.881337,17.256095 353.253874,16.8597575 353.740161,16.5792683 C354.226448,16.2987791 354.790993,16.1585366 355.43381,16.1585366 C356.347947,16.1585366 357.094064,16.4308916 357.672182,16.9756098 C358.250301,17.5203279 358.572749,18.2601579 358.639535,19.195122 L358.652057,19.6463415 C358.652057,20.6585416 358.361959,21.4705254 357.781753,22.0823171 C357.201547,22.6941087 356.423082,23 355.446333,23 C354.469584,23 353.690074,22.695125 353.107782,22.0853659 C352.525489,21.4756067 352.234347,20.6463467 352.234347,19.597561 L352.234347,19.5182927 Z M354.043828,19.6463415 C354.043828,20.2723609 354.164877,20.7510146 354.406977,21.0823171 C354.649077,21.4136195 354.995525,21.5792683 355.446333,21.5792683 C355.884618,21.5792683 356.226892,21.415652 356.473166,21.0884146 C356.719441,20.7611772 356.842576,20.2378085 356.842576,19.5182927 C356.842576,18.9044685 356.719441,18.4288635 356.473166,18.0914634 C356.226892,17.7540634 355.880443,17.5853659 355.43381,17.5853659 C354.991351,17.5853659 354.649077,17.7530471 354.406977,18.0884146 C354.164877,18.4237822 354.043828,18.9430859 354.043828,19.6463415 Z M365.658318,20.4817073 L366.547406,16.2804878 L368.294275,16.2804878 L366.56619,22.8780488 L365.050984,22.8780488 L363.767442,18.7256098 L362.4839,22.8780488 L360.974955,22.8780488 L359.246869,16.2804878 L360.993739,16.2804878 L361.876565,20.4756098 L363.116279,16.2804878 L364.424866,16.2804878 L365.658318,20.4817073 Z M370.855098,16.2804878 L370.911449,17.0426829 C371.395649,16.4532491 372.044719,16.1585366 372.858676,16.1585366 C373.576629,16.1585366 374.110911,16.3638191 374.461538,16.7743902 C374.812166,17.1849614 374.991652,17.7987764 375,18.6158537 L375,22.8780488 L373.190519,22.8780488 L373.190519,18.6585366 C373.190519,18.284551 373.107037,18.0132122 372.940072,17.8445122 C372.773106,17.6758122 372.49553,17.5914634 372.107335,17.5914634 C371.598089,17.5914634 371.216161,17.8028434 370.961538,18.2256098 L370.961538,22.8780488 L369.152057,22.8780488 L369.152057,16.2804878 L370.855098,16.2804878 Z" id="Brown" fill="#FFFFFF"></path>
            <polygon id="Path-2" fill="#D97D96" points="81.5720061 7 89 18.529185 81.5720061 30 72 30 72 7"></polygon>
            <polygon id="Path-2-Copy" fill="#777777" points="158.572006 7 166 18.529185 158.572006 30 149 30 149 7"></polygon>
            <polygon id="Path-2-Copy-2" fill="#777777" points="239.572006 7 247 18.529185 239.572006 30 230 30 230 7"></polygon>
            <polyline id="Path-4" stroke="#FFFFFF" points="82 7 89 18.5530543 82 30"></polyline>
            <polyline id="Path-4-Copy" stroke="#FFFFFF" points="159 7 166 18.5530543 159 30"></polyline>
            <polyline id="Path-4-Copy-2" stroke="#FFFFFF" points="240 7 247 18.5530543 240 30"></polyline>
            <polygon id="Path-2-Copy-2" fill="#777777" points="317.572006 7 325 18.529185 317.572006 30 308 30 308 7"></polygon>
            <polygon id="Path-2-Copy-3" fill="#A7A4A4" points="394.572006 7 402 18.529185 394.572006 30 385 30 385 7"></polygon>
            <polyline id="Path-4-Copy-2" stroke="#FFFFFF" points="318 7 325 18.5530543 318 30"></polyline>
            <polyline id="Path-4-Copy-3" stroke="#FFFFFF" points="395 7 402 18.5530543 395 30"></polyline>
        </g>
    </g>
</svg>